<?xml version="1.0" standalone="no"?>
<!DOCTYPE svg PUBLIC "-//W3C//DTD SVG 20010904//EN"
 "http://www.w3.org/TR/2001/REC-SVG-20010904/DTD/svg10.dtd">
<svg version="1.0" xmlns="http://www.w3.org/2000/svg"
 width="465.000000pt" height="437.000000pt" viewBox="0 0 465.000000 437.000000"
 preserveAspectRatio="xMidYMid meet">

<g transform="translate(0.000000,437.000000) scale(0.100000,-0.100000)"
fill="#000000" stroke="none">
<path d="M1650 3970 c-96 -15 -221 -80 -331 -172 -95 -80 -117 -97 -159 -123
-57 -36 -206 -187 -245 -249 -16 -26 -51 -81 -78 -122 -71 -114 -168 -337
-212 -488 -13 -46 -15 -64 -6 -83 9 -21 14 -23 26 -13 8 7 15 29 16 49 0 20 7
52 14 71 13 34 14 32 14 -52 1 -86 -15 -177 -33 -189 -5 -4 -10 -41 -12 -83
-5 -127 -12 -207 -25 -299 -14 -101 -5 -137 34 -137 22 0 67 46 67 68 0 5 7
15 15 22 12 10 15 8 19 -12 3 -12 8 -36 11 -53 4 -16 10 -71 14 -121 4 -50 11
-97 16 -103 4 -7 20 -11 35 -9 26 4 29 1 35 -31 4 -20 11 -44 16 -53 13 -25
74 -24 91 1 7 10 17 18 23 17 5 0 19 15 32 34 57 88 77 112 106 123 l32 13 17
-65 c10 -36 22 -88 28 -115 6 -27 18 -64 28 -81 11 -17 22 -44 26 -60 4 -17
13 -37 20 -45 7 -8 20 -35 30 -60 25 -64 47 -110 72 -150 11 -19 23 -55 27
-78 3 -24 14 -54 25 -65 11 -12 25 -40 32 -62 7 -22 20 -49 30 -60 10 -11 23
-30 29 -42 11 -22 10 -23 -27 -23 -22 0 -45 -6 -51 -14 -7 -8 -40 -28 -75 -45
-35 -16 -69 -37 -76 -46 -7 -8 -18 -15 -25 -15 -6 0 -20 -10 -31 -21 -10 -12
-38 -35 -62 -51 -37 -26 -43 -34 -40 -61 4 -39 38 -52 38 -15 0 13 10 30 22
38 12 8 34 27 49 43 15 15 34 27 43 27 8 0 19 6 23 14 9 15 77 56 95 56 6 0
26 11 44 25 22 17 45 25 71 25 36 -1 44 -7 127 -103 109 -126 196 -201 258
-225 l48 -18 -53 -30 c-30 -17 -76 -34 -103 -37 -43 -6 -120 -30 -179 -57 -21
-9 -57 -18 -113 -27 -18 -3 -35 -9 -38 -14 -8 -13 -60 -11 -72 3 -19 24 -72
161 -78 202 -9 62 -30 119 -47 130 -26 17 -30 0 -14 -51 8 -26 18 -70 22 -97
7 -50 9 -55 38 -114 9 -19 17 -40 17 -47 0 -7 12 -27 26 -44 21 -26 33 -31 69
-31 24 0 47 5 50 10 3 6 21 10 40 10 19 0 37 5 40 10 3 6 19 10 34 10 15 0 31
4 37 8 17 15 130 52 180 58 30 4 75 22 117 47 62 36 70 39 95 27 15 -6 47 -16
72 -20 105 -20 151 -32 255 -66 60 -20 120 -45 133 -55 13 -10 40 -23 60 -30
20 -6 60 -22 87 -35 30 -14 81 -26 123 -30 l72 -7 50 54 c28 30 50 58 50 63 0
4 19 35 43 67 82 113 129 198 177 319 l18 45 129 0 c158 -1 193 -12 193 -60 0
-36 -17 -93 -34 -114 -6 -7 -24 -37 -41 -67 -90 -159 -198 -306 -218 -298 -13
5 -37 78 -37 113 0 10 -7 24 -15 31 -8 7 -15 20 -15 29 0 10 -9 27 -21 40 -17
18 -24 20 -35 10 -13 -10 -12 -15 1 -35 8 -13 15 -30 15 -37 0 -8 6 -19 13
-25 7 -6 19 -41 27 -77 15 -72 43 -102 85 -91 22 6 95 83 95 100 0 4 19 33 43
64 23 31 48 68 55 82 19 38 76 136 88 151 19 24 34 81 34 131 0 49 0 49 -46
69 -34 16 -78 22 -171 27 l-124 7 25 35 c14 19 42 67 62 105 20 39 46 81 59
95 13 14 35 54 50 90 74 181 117 300 124 345 23 136 56 255 73 255 3 0 9 8 11
18 4 13 5 12 6 -5 0 -12 6 -25 11 -28 6 -3 10 -28 10 -54 0 -26 4 -51 9 -56 5
-6 11 -23 13 -40 3 -26 8 -30 35 -33 18 -2 42 3 53 11 25 18 70 83 70 103 0
27 50 83 78 86 22 3 27 10 38 58 7 30 13 69 14 86 0 28 2 30 30 26 27 -4 30
-1 30 22 0 19 5 26 19 26 32 0 53 121 50 300 -1 112 1 153 11 166 12 13 11 21
-4 49 -14 26 -17 45 -12 86 4 30 9 137 12 237 5 174 5 184 -13 180 -16 -3 -18
-18 -23 -152 l-5 -148 -28 56 c-16 31 -39 69 -51 84 -25 30 -106 169 -106 181
0 4 -9 16 -20 26 -11 10 -20 23 -20 30 0 6 -18 37 -40 69 -22 31 -40 61 -40
66 0 19 -156 172 -190 186 -19 8 -44 24 -55 34 -12 11 -48 31 -81 44 -62 25
-178 88 -204 111 -69 60 -367 151 -569 175 -52 6 -98 13 -103 16 -5 4 -69 8
-141 10 -73 3 -159 9 -192 14 -67 11 -466 11 -535 0z m395 -97 l0 -56 -68 -52
c-37 -28 -109 -73 -160 -100 -50 -26 -105 -58 -122 -70 -16 -12 -46 -30 -65
-40 -45 -23 -188 -146 -189 -163 -2 -36 55 -15 132 49 18 15 70 49 117 77 47
27 116 73 155 101 49 36 80 52 105 53 19 1 43 2 53 2 28 2 48 35 36 58 -10 19
2 48 20 48 10 0 49 -127 57 -185 9 -68 20 -88 46 -79 19 6 20 3 13 -34 -7 -42
8 -87 25 -77 5 3 14 -4 21 -16 l11 -22 24 24 c26 26 44 100 44 178 0 25 5 80
11 122 l12 76 42 -43 c45 -47 68 -54 86 -26 12 19 62 19 84 1 6 -4 29 -11 51
-15 30 -4 45 -2 56 9 19 20 12 63 -13 81 -17 11 -17 15 -5 25 11 9 18 6 33
-14 25 -35 88 -41 88 -10 0 12 -12 26 -30 35 -39 20 -125 71 -125 74 0 8 117
-7 200 -25 167 -37 341 -102 395 -148 28 -25 120 -75 196 -106 35 -15 79 -40
98 -56 20 -16 42 -29 49 -29 21 0 118 -105 171 -185 46 -70 54 -84 121 -205
45 -81 50 -88 82 -130 29 -38 28 -63 -5 -160 -8 -25 -17 -79 -21 -122 -7 -97
-21 -131 -48 -117 -25 13 -55 3 -63 -21 -6 -19 -7 -19 -33 -3 -15 9 -47 36
-72 58 -61 56 -159 117 -176 111 -19 -7 -18 -83 0 -128 17 -39 34 -278 20
-278 -5 0 -27 7 -49 14 l-40 14 -3 192 c-2 175 -4 191 -20 188 -15 -3 -17 -22
-20 -181 -1 -97 -4 -177 -7 -177 -7 0 -70 36 -115 66 -53 35 -70 23 -70 -52 0
-40 -4 -54 -14 -54 -28 0 -116 45 -122 63 -3 9 -13 17 -22 17 -8 0 -26 10 -39
22 -17 16 -39 23 -83 26 -57 4 -60 6 -70 38 -6 18 -15 34 -19 36 -13 5 -82
100 -92 125 -16 42 -35 37 -102 -27 -84 -80 -204 -159 -325 -214 -140 -64
-138 -64 -209 -17 -33 23 -70 41 -82 41 -18 0 -66 33 -158 111 -13 10 -23 23
-23 29 0 19 -24 10 -48 -17 l-23 -28 6 68 c4 37 11 82 16 100 5 18 9 53 9 80
0 26 6 60 14 75 8 15 17 46 21 67 16 107 51 190 96 232 16 15 29 34 29 40 0 7
3 13 8 13 4 0 12 12 19 26 10 21 9 26 -5 31 -10 5 -23 -3 -36 -22 -12 -15 -35
-45 -53 -67 -47 -57 -92 -164 -93 -219 -1 -13 -8 -42 -17 -64 -8 -22 -19 -71
-23 -110 -9 -71 -27 -192 -36 -232 -6 -28 -48 -31 -111 -7 -41 16 -44 16 -88
-5 -24 -11 -56 -21 -69 -21 -30 0 -120 86 -112 106 8 22 -4 44 -25 44 -10 0
-19 -4 -19 -9 0 -5 -8 -7 -19 -4 -10 3 -22 0 -25 -6 -15 -24 -35 -8 -51 42
-19 57 -45 114 -75 165 l-20 33 26 35 c15 19 35 39 46 45 10 5 18 18 18 27 0
10 29 48 65 84 37 39 65 76 65 87 0 33 -22 24 -65 -25 -22 -25 -55 -59 -72
-76 -18 -17 -33 -36 -33 -43 0 -6 -13 -24 -30 -40 -16 -16 -30 -34 -30 -39 -1
-6 -17 -24 -38 -39 -33 -26 -37 -27 -40 -10 -14 88 -32 85 -122 -21 -38 -47
-74 -87 -78 -90 -5 -3 -6 9 -4 26 4 25 2 29 -14 26 -14 -2 -23 -20 -34 -68
l-15 -65 -3 89 c-3 83 -4 88 -23 83 -13 -4 -19 -1 -16 6 3 7 15 37 27 67 12
30 37 89 55 130 19 41 36 82 39 90 6 17 67 112 138 217 53 79 169 193 250 247
29 20 80 58 113 86 65 54 171 127 222 154 51 26 124 34 323 35 l186 1 -1 -57z
m308 37 c122 -10 153 -15 174 -32 10 -8 9 -13 -1 -24 -26 -25 -3 -62 70 -112
17 -11 16 -12 -11 -8 -49 8 -128 30 -152 44 -12 6 -33 12 -48 12 -19 0 -29 8
-42 35 -9 19 -22 35 -28 35 -18 0 -45 -79 -45 -128 0 -23 -4 -42 -10 -42 -5 0
-10 5 -10 10 0 32 -53 -12 -73 -62 l-14 -33 -11 45 c-6 25 -20 72 -32 105
l-20 59 30 24 c36 28 38 44 9 73 l-22 22 59 -7 c33 -3 112 -10 177 -16z m-248
-29 c3 -5 1 -12 -5 -16 -5 -3 -10 1 -10 9 0 18 6 21 15 7z m-1146 -1089 c1
-53 5 -67 26 -88 23 -23 25 -31 25 -130 0 -115 9 -144 44 -144 27 0 100 54
163 120 23 25 43 43 43 40 0 -3 -24 -63 -53 -135 -48 -119 -54 -130 -79 -133
-21 -3 -28 -9 -28 -25 -1 -22 -57 -67 -85 -67 -21 0 -27 46 -25 195 1 77 2
146 1 153 -1 14 -41 17 -41 2 0 -5 -15 -26 -32 -46 -61 -70 -170 -97 -202 -52
-24 34 -20 85 9 112 13 12 41 56 62 98 21 41 65 106 98 144 58 67 60 69 66 45
4 -15 7 -54 8 -89z m3051 -35 c0 -33 -4 -47 -12 -46 -44 5 -54 -26 -13 -41 28
-11 29 -14 15 -40 -9 -18 -12 -18 -49 -2 l-39 17 5 60 c4 59 15 113 36 168
l10 29 23 -49 c15 -30 24 -66 24 -96z m-2940 102 c0 -6 11 -25 24 -42 13 -18
34 -65 46 -106 19 -62 27 -75 52 -86 l30 -12 -45 -44 c-68 -65 -97 -89 -107
-89 -6 0 -10 48 -10 114 0 129 -4 146 -32 146 -18 0 -20 5 -16 43 5 46 34 100
49 91 5 -3 9 -10 9 -15z m2581 -264 c96 -78 122 -111 136 -167 7 -28 11 -53 8
-56 -8 -8 -85 79 -106 121 -21 41 -34 46 -71 32 -12 -5 -21 2 -33 24 -8 17
-22 31 -29 31 -14 0 -46 67 -46 95 0 20 61 -15 141 -80z m-918 -10 c40 -55 47
-71 47 -110 0 -61 -29 -185 -43 -185 -6 0 -21 -10 -34 -21 -17 -17 -23 -19
-27 -8 -8 24 -17 82 -22 134 -7 78 -13 95 -32 95 -18 0 -87 -74 -182 -193
l-55 -68 -9 28 c-13 41 -45 83 -63 83 -8 0 -29 -14 -46 -30 -66 -64 -75 -70
-94 -70 -11 0 -26 7 -33 15 -19 23 -38 18 -78 -20 -35 -33 -41 -35 -108 -35
-62 0 -73 3 -94 25 -31 33 -52 32 -88 -5 -30 -29 -30 -29 -36 -7 -10 39 -7 57
19 95 14 20 25 48 25 62 1 14 7 36 15 50 8 14 15 41 15 60 1 55 12 65 41 34
40 -43 115 -94 139 -94 12 0 50 -18 83 -41 73 -50 83 -49 228 17 120 54 240
131 319 203 30 28 57 50 60 50 3 0 26 -29 53 -64z m-1303 -85 c23 0 50 5 61
11 11 6 24 9 30 7 15 -5 -185 -168 -206 -168 -3 0 -5 11 -5 24 0 14 -7 32 -16
41 -15 15 -18 14 -42 -1 -19 -12 -24 -13 -20 -3 3 8 21 51 39 97 l34 83 42
-45 c36 -41 46 -46 83 -46z m2474 64 c3 -8 2 -12 -4 -9 -6 3 -10 10 -10 16 0
14 7 11 14 -7z m86 -19 c0 -7 3 -20 6 -29 4 -10 1 -16 -9 -16 -19 0 -23 5 -32
48 -7 32 -6 33 14 23 12 -7 21 -18 21 -26z m-152 -23 c3 -25 0 -31 -12 -26
-10 4 -16 18 -16 36 0 40 24 32 28 -10z m-2252 3 c10 -8 38 -15 62 -15 l42 0
0 -42 c0 -24 -4 -47 -8 -53 -10 -14 -72 -19 -72 -6 0 6 -7 11 -15 11 -10 0
-15 10 -15 34 0 44 -9 66 -26 66 -8 0 -14 5 -14 10 0 15 23 12 46 -5z m2324
-52 c0 -37 -24 -22 -28 17 -3 30 -2 32 12 21 9 -8 16 -25 16 -38z m-2951 -271
c17 -32 70 -30 111 4 17 15 33 24 36 21 6 -6 -27 -116 -79 -257 -31 -87 -81
-164 -100 -157 -6 2 -20 31 -30 65 -18 62 -40 81 -54 46 -11 -30 -23 8 -23 75
0 36 -4 78 -10 95 -5 17 -15 59 -22 93 -6 34 -18 65 -24 67 -14 5 -73 -64 -92
-108 -20 -46 -25 -23 -14 61 6 43 14 115 18 160 l7 83 29 -21 c24 -17 37 -20
76 -14 52 8 111 35 133 61 12 15 15 1 20 -117 3 -74 11 -144 18 -157z m2745
194 c21 -25 35 -50 31 -54 -4 -4 -15 4 -24 18 -9 13 -30 43 -48 66 -17 23 -29
45 -25 48 3 4 11 -2 16 -12 6 -10 29 -40 50 -66z m-2174 21 c0 -36 -4 -45 -28
-59 -15 -9 -53 -41 -84 -71 l-56 -54 -6 29 c-8 41 -40 37 -73 -10 -16 -21 -45
-57 -65 -81 l-37 -43 -11 43 c-16 58 1 113 48 157 l35 34 13 -31 c23 -55 71
-36 199 76 33 29 61 53 63 53 1 0 2 -19 2 -43z m2472 26 c14 -12 18 -31 18
-76 0 -89 -20 -178 -39 -174 -9 1 -20 -8 -26 -21 -6 -13 -16 -20 -24 -17 -23
9 -41 -16 -41 -57 0 -67 -19 -126 -43 -130 -21 -3 -85 -82 -86 -106 -1 -7 -12
-30 -26 -52 -27 -42 -55 -53 -55 -21 0 11 -4 23 -10 26 -5 3 -10 28 -10 55 0
27 -4 52 -10 55 -5 3 -10 17 -10 30 0 13 -7 31 -16 40 -13 12 -14 19 -5 28 6
6 11 21 11 33 0 13 4 25 9 29 5 3 12 18 16 34 3 16 15 37 26 47 10 9 19 21 19
26 0 5 10 23 22 41 13 18 23 33 24 35 0 1 16 -5 34 -14 49 -25 64 -10 68 62 2
32 7 63 11 67 5 5 21 1 36 -9 27 -18 28 -18 46 5 11 13 19 36 19 52 0 33 15
37 42 12z m-2256 -30 c-8 -15 -15 -22 -16 -15 0 17 20 55 27 49 2 -3 -2 -18
-11 -34z m1220 4 l27 -24 -13 -159 c-11 -129 -15 -153 -23 -129 -5 17 -15 37
-22 45 -6 8 -17 47 -24 85 -7 40 -23 86 -37 108 -13 20 -27 51 -31 67 l-5 30
50 0 c39 0 57 -6 78 -23z m884 19 c0 -3 -4 -8 -10 -11 -5 -3 -10 -1 -10 4 0 6
5 11 10 11 6 0 10 -2 10 -4z m-208 -49 c15 -24 37 -52 48 -62 26 -23 25 -31
-5 -71 -14 -18 -25 -37 -25 -42 0 -5 -6 -15 -14 -21 -11 -9 -15 4 -25 76 -6
49 -14 105 -17 126 -8 49 5 47 38 -6z m-378 14 c9 -10 36 -26 61 -36 25 -11
46 -27 49 -38 4 -15 10 -18 31 -13 15 4 39 1 55 -6 27 -12 27 -13 13 -43 l-15
-32 -44 16 c-24 9 -49 26 -56 39 -20 38 -44 46 -67 21 -11 -12 -24 -18 -29
-15 -19 12 -38 -5 -68 -59 -16 -30 -33 -53 -39 -52 -12 4 -70 103 -80 135 -7
23 -7 23 30 7 21 -8 55 -15 76 -15 l39 0 0 55 c0 60 13 70 44 36z m-629 -139
l7 -52 -31 0 c-26 0 -31 4 -31 25 0 14 -8 47 -19 74 l-18 49 26 26 26 26 16
-48 c9 -27 20 -72 24 -100z m-968 67 c1 -13 5 -37 9 -52 4 -16 1 -46 -6 -68
-17 -52 -4 -94 28 -93 16 0 24 -6 28 -25 3 -14 10 -42 15 -61 5 -19 9 -40 9
-46 0 -13 -129 -64 -162 -64 -28 0 -77 -31 -84 -52 -3 -10 -12 -18 -20 -18
-21 0 -17 -28 6 -40 11 -6 20 -17 20 -24 0 -7 8 -21 19 -30 17 -15 39 -16 222
-10 218 7 243 13 274 60 24 37 7 97 -35 119 -17 9 -30 19 -30 23 0 11 28 51
64 92 l31 35 35 -17 c61 -31 103 -21 209 52 l61 41 0 -30 c0 -38 29 -74 53
-66 14 6 70 109 105 195 11 25 11 25 11 -6 1 -17 11 -43 22 -58 18 -22 28 -27
58 -24 l36 3 6 -80 c7 -87 24 -161 39 -170 18 -11 50 6 56 30 8 32 30 50 37
31 10 -26 74 -49 122 -44 53 6 148 65 213 131 l43 44 46 -24 c50 -25 102 -30
121 -11 7 7 12 31 12 55 0 41 1 42 24 32 18 -8 30 -7 54 5 19 10 33 12 37 6 3
-6 1 -10 -4 -10 -18 0 -12 -38 13 -88 56 -110 67 -142 55 -163 -6 -12 -24 -87
-40 -167 -34 -166 -129 -423 -177 -475 -11 -12 -34 -51 -52 -87 -18 -36 -45
-81 -60 -100 -15 -19 -31 -45 -35 -58 -13 -42 -30 -17 -35 52 -4 52 -10 71
-24 82 -31 22 -53 17 -95 -21 l-38 -35 -19 21 c-26 28 -67 49 -99 49 -40 0
-103 -37 -128 -75 -12 -19 -24 -35 -27 -35 -3 0 -18 29 -34 65 -20 47 -35 67
-51 71 -34 8 -86 -25 -112 -71 -9 -15 -11 -13 -16 13 -14 68 -103 45 -149 -38
-31 -56 -42 -60 -59 -27 -19 35 -70 95 -86 101 -21 8 -61 -15 -82 -48 l-18
-27 -6 28 c-7 33 -41 73 -63 73 -21 0 -69 -55 -101 -116 l-27 -52 -14 41 c-18
55 -35 68 -71 56 -43 -15 -62 -69 -40 -110 14 -28 39 -7 39 32 0 19 5 29 15
29 11 0 15 -12 15 -48 0 -39 -4 -49 -22 -57 -35 -16 -197 66 -228 115 -13 19
-30 46 -40 60 -9 14 -22 41 -30 60 -8 19 -22 46 -31 60 -9 14 -20 40 -23 58
-5 27 -2 32 14 32 10 0 21 -4 24 -9 23 -36 195 -79 276 -68 23 3 74 21 114 41
54 27 80 47 104 81 18 25 32 49 32 53 0 4 11 19 24 33 18 19 39 28 78 33 51 7
54 6 83 -27 39 -44 109 -97 128 -97 8 0 20 -6 26 -14 14 -17 72 -27 174 -30
62 -2 82 -7 100 -23 31 -29 108 -53 169 -53 29 0 58 -6 67 -13 9 -8 39 -20 66
-26 28 -7 66 -19 86 -26 20 -8 39 -12 42 -9 2 2 15 -7 28 -21 33 -35 87 -68
99 -60 18 11 11 32 -17 51 -16 10 -45 35 -65 56 -37 38 -37 40 -21 65 13 20
14 31 6 53 -9 25 -8 27 9 22 27 -7 102 -96 108 -129 3 -16 13 -29 23 -31 15
-3 17 5 17 55 0 80 -44 140 -134 179 -22 10 -46 23 -52 29 -6 6 -31 17 -55 24
-24 7 -64 21 -89 31 -25 10 -58 21 -75 25 -16 3 -64 16 -105 29 -41 13 -87 26
-102 30 -15 3 -33 12 -40 19 -7 6 -37 32 -66 56 -29 24 -59 58 -66 76 -8 18
-24 36 -37 40 -24 8 -55 -20 -157 -143 -33 -39 -50 -52 -70 -52 -28 0 -177
-53 -198 -71 -6 -5 -14 -22 -17 -37 -9 -45 -57 -110 -91 -123 -17 -7 -43 -22
-58 -32 -23 -17 -39 -19 -125 -15 -92 5 -104 8 -196 53 -74 36 -101 54 -109
74 -5 14 -19 45 -29 69 -10 23 -19 53 -19 65 0 12 -8 33 -17 47 -9 13 -20 47
-24 76 -4 28 -14 67 -22 85 -18 40 -69 201 -65 203 2 1 21 13 43 27 78 50 100
64 121 75 12 6 44 29 72 50 28 22 62 47 76 57 25 18 36 57 16 57 -6 0 -48 -29
-95 -65 -46 -36 -86 -65 -89 -65 -3 0 -38 -21 -77 -46 -68 -43 -99 -50 -99
-22 0 8 23 41 52 76 l52 62 14 -25 c12 -24 14 -24 41 -11 15 8 35 26 44 40 10
14 44 48 78 76 47 39 65 49 84 44 13 -3 36 1 52 10 35 19 47 16 50 -15z m60 9
c-3 -8 -6 -5 -6 6 -1 11 2 17 5 13 3 -3 4 -12 1 -19z m1144 -109 c6 -35 17
-75 24 -89 7 -14 16 -38 21 -53 5 -16 21 -36 36 -45 46 -27 59 -4 70 125 4 59
9 114 11 121 1 6 15 -14 32 -45 16 -32 38 -68 48 -80 18 -20 18 -23 2 -46 -15
-23 -79 -77 -145 -120 -28 -19 -101 -22 -131 -6 -11 6 -29 19 -40 30 -25 25
-35 24 -63 -6 l-23 -25 -11 27 c-6 16 -12 60 -15 100 -4 66 -2 74 19 94 l24
22 0 -22 c0 -12 5 -31 11 -42 15 -29 39 -6 39 37 0 29 11 86 27 143 7 28 51
-54 64 -120z m709 1 l0 -100 -28 18 c-15 9 -38 24 -50 33 l-22 16 23 39 c54
91 62 102 69 98 5 -3 8 -50 8 -104z m220 80 c0 -5 -2 -10 -4 -10 -3 0 -8 5
-11 10 -3 6 -1 10 4 10 6 0 11 -4 11 -10z m-1464 -87 l6 -40 -74 -47 c-61 -38
-83 -46 -122 -46 -48 0 -49 1 -60 53 -9 39 -32 33 -56 -14 -37 -71 -111 -164
-129 -161 -9 2 -35 6 -59 9 -48 6 -55 16 -74 109 -10 49 -9 52 20 83 l30 33
38 -26 c31 -21 50 -26 101 -26 55 0 66 4 107 34 38 30 46 33 57 20 18 -22 64
-17 99 12 17 15 46 37 63 49 37 25 43 20 53 -42z m114 -30 c-24 -52 -33 -64
-40 -53 -5 8 -10 21 -10 28 0 18 74 112 78 101 2 -5 -10 -39 -28 -76z m840
-35 c0 -44 -2 -48 -25 -48 -25 0 -75 19 -75 29 0 3 14 30 31 60 l31 54 19 -24
c12 -15 19 -41 19 -71z m106 51 c11 0 14 -3 6 -6 -22 -9 -62 7 -62 24 0 15 1
15 18 0 10 -10 27 -17 38 -18z m157 -115 c15 -13 23 -26 17 -29 -5 -3 -10 -19
-10 -36 0 -32 -17 -39 -26 -11 -4 9 -16 37 -27 62 -12 25 -23 49 -25 53 -6 13
38 -12 71 -39z m-2418 -24 c-3 -9 -17 -32 -31 -51 -15 -19 -24 -27 -22 -19 3
8 14 41 24 73 16 50 19 55 26 36 5 -12 6 -29 3 -39z m740 -150 c-3 -5 -17 -10
-30 -10 -13 0 -27 5 -30 10 -4 6 8 10 30 10 22 0 34 -4 30 -10z m-175 -30 c0
-11 7 -37 15 -56 l15 -36 -67 7 c-86 9 -115 20 -111 42 2 12 20 21 57 29 29 7
58 17 64 23 17 17 27 13 27 -9z m82 -7 c24 -22 24 -53 -1 -53 -20 0 -31 18
-31 51 0 23 8 24 32 2z m192 1 c21 -20 20 -43 -1 -66 -22 -25 -139 -27 -129
-2 3 9 6 23 6 32 0 19 52 48 87 51 12 0 29 -6 37 -15z m492 -201 l36 -27 -49
-12 c-26 -7 -51 -13 -54 -14 -3 0 -23 -12 -44 -26 -53 -36 -76 -24 -38 19 16
18 35 48 43 66 12 29 17 32 42 27 16 -3 45 -18 64 -33z m110 -116 c52 -35 234
-127 252 -127 6 0 26 -6 44 -14 18 -8 60 -25 93 -37 74 -28 85 -36 85 -60 0
-24 -4 -24 -40 2 -18 14 -37 20 -50 16 -16 -4 -39 7 -82 39 -33 24 -66 44 -73
44 -6 0 -33 11 -59 25 -26 14 -52 25 -57 25 -5 0 -29 10 -52 21 -32 16 -69 23
-149 28 -129 8 -152 21 -87 50 68 30 118 27 175 -12z m-306 -47 c-6 -11 -12
-20 -14 -20 -2 0 -11 9 -21 20 -18 20 -17 20 14 20 29 0 31 -2 21 -20z m616
-31 c6 -5 33 -16 60 -24 41 -12 152 -75 133 -75 -4 0 -62 22 -130 50 -68 27
-129 50 -136 50 -6 0 -15 5 -19 11 -8 13 74 2 92 -12z m-398 -47 c24 -14 58
-28 75 -32 25 -6 18 -8 -33 -9 -66 0 -127 13 -190 41 l-35 16 30 7 c17 4 35 8
40 10 20 7 71 -8 113 -33z m134 18 c18 -11 39 -20 46 -20 18 0 162 -69 191
-91 l24 -19 -26 0 c-39 0 -155 49 -206 87 -24 18 -60 35 -80 39 -59 11 -72 23
-24 24 25 0 56 -8 75 -20z m-578 -382 c30 -91 63 -85 93 17 12 42 33 41 68 -6
17 -22 42 -55 58 -74 l27 -33 -42 -20 c-51 -25 -218 -42 -218 -23 0 6 -7 11
-15 11 -8 0 -15 -4 -15 -10 0 -13 -107 -13 -115 -1 -3 5 -1 12 4 16 5 3 21 30
35 60 25 56 86 139 94 130 3 -3 14 -33 26 -67z m564 50 c11 -23 42 -98 42
-103 0 -1 -21 -5 -47 -8 -27 -4 -70 -11 -98 -17 -27 -6 -80 -13 -117 -16 l-67
-7 9 33 c5 18 16 40 25 50 8 9 15 22 15 28 0 15 29 42 46 42 9 0 14 -11 14
-33 0 -34 23 -77 42 -77 18 0 48 32 48 51 0 21 47 79 64 79 7 0 18 -10 24 -22z
m293 -24 c7 -9 19 -32 25 -50 l12 -34 -109 0 -109 0 16 28 c30 49 66 72 110
72 26 0 47 -6 55 -16z m169 -32 c0 -48 0 -49 -30 -44 -17 2 -36 -1 -44 -7 -23
-19 -26 0 -3 33 59 84 77 89 77 18z m-1340 -128 c8 -3 21 -8 28 -10 6 -2 12
-14 12 -27 0 -37 23 -62 46 -49 15 8 25 4 56 -24 26 -23 48 -34 68 -34 27 0
35 -9 31 -32 0 -5 11 -8 26 -8 l27 0 -20 -20 c-19 -19 -23 -19 -60 -7 -21 8
-60 28 -85 46 -49 33 -160 146 -180 183 -12 22 -12 22 12 5 13 -9 31 -20 39
-23z m1254 -20 c9 -66 8 -94 -4 -94 -5 0 -10 15 -10 34 0 47 -9 66 -30 66 -23
0 -34 -32 -25 -76 4 -26 3 -34 -9 -34 -18 0 -66 56 -78 92 -12 34 -34 36 -43
6 -14 -50 -39 -98 -51 -98 -7 0 -22 20 -33 45 -32 72 -75 55 -90 -34 -8 -43
-28 -51 -36 -14 -18 84 -44 95 -69 29 -21 -56 -46 -78 -82 -74 -29 3 -35 14
-49 81 -7 37 -28 34 -51 -9 -47 -88 -157 -85 -166 6 -3 36 -1 40 18 40 12 0
41 9 65 20 26 12 66 20 98 20 54 0 152 15 201 31 14 4 118 8 231 8 l206 1 7
-46z m145 39 c0 -5 -11 -30 -24 -58 l-23 -50 -1 51 c-1 28 2 54 6 57 9 9 43 9
42 0z m-102 -25 c-3 -8 -6 -5 -6 6 -1 11 2 17 5 13 3 -3 4 -12 1 -19z m-1037
-68 c0 -13 -11 -13 -30 0 -12 8 -11 10 8 10 12 0 22 -4 22 -10z m118 -22 c-2
-24 -8 -34 -24 -36 -16 -2 -23 5 -31 33 l-11 35 35 0 c33 0 34 -1 31 -32z
m715 -12 c4 -10 1 -13 -8 -9 -8 3 -12 9 -9 14 7 12 11 11 17 -5z m42 -46 c10
-11 16 -20 13 -20 -3 0 -13 9 -23 20 -10 11 -16 20 -13 20 3 0 13 -9 23 -20z
m-344 -23 l-24 -22 19 27 c10 14 21 24 23 22 3 -3 -6 -15 -18 -27z m269 29 c0
-2 -8 -10 -17 -17 -16 -13 -17 -12 -4 4 13 16 21 21 21 13z m-639 -33 c13 -17
13 -17 -6 -3 -11 8 -22 16 -24 17 -2 2 0 3 6 3 6 0 17 -8 24 -17z m203 9 c2
-4 -4 -8 -14 -8 -10 0 -16 4 -14 8 3 4 9 8 14 8 5 0 11 -4 14 -8z m200 -18 c3
-8 2 -12 -4 -9 -6 3 -10 10 -10 16 0 14 7 11 14 -7z m-254 2 c0 -2 -8 -10 -17
-17 -16 -13 -17 -12 -4 4 13 16 21 21 21 13z m81 -23 c13 -16 12 -17 -3 -4
-17 13 -22 21 -14 21 2 0 10 -8 17 -17z m433 -6 c98 -4 181 -9 183 -11 6 -6
-25 -65 -57 -106 -14 -19 -46 -61 -70 -94 l-44 -58 -75 6 c-41 4 -93 15 -115
25 -23 10 -52 22 -66 26 -14 4 -41 17 -60 29 -19 11 -59 31 -90 43 -44 17 -50
22 -27 22 15 1 27 6 27 11 0 6 6 10 14 10 8 0 31 9 53 20 21 10 59 28 85 40
46 20 70 40 48 40 -6 0 -8 5 -4 11 4 7 9 7 13 2 3 -6 87 -13 185 -16z m-607
-33 c39 -19 76 -34 82 -34 6 0 11 -4 11 -10 0 -5 6 -10 13 -10 6 0 21 -8 32
-17 l20 -15 -20 5 c-128 37 -245 66 -265 67 -41 1 -54 13 -39 38 11 18 20 21
54 15 22 -3 72 -21 112 -39z"/>
<path d="M2970 3716 c0 -8 37 -51 82 -96 89 -91 148 -163 148 -183 0 -7 14
-26 30 -42 17 -16 30 -33 30 -38 0 -5 14 -26 30 -47 17 -21 30 -43 30 -49 0
-6 22 -54 49 -106 28 -52 54 -109 60 -127 33 -109 61 -173 75 -176 22 -5 21
31 -5 98 -11 30 -25 69 -30 85 -5 17 -31 75 -58 130 -27 55 -52 107 -56 115
-3 8 -14 29 -25 45 -11 17 -23 37 -26 46 -3 9 -19 26 -35 38 -16 12 -29 28
-29 37 0 25 -60 101 -153 195 -83 85 -117 106 -117 75z"/>
<path d="M1308 3608 c-12 -18 -57 -69 -98 -113 -73 -78 -130 -171 -146 -240
-14 -56 -63 -112 -166 -188 -21 -16 -38 -32 -38 -38 0 -15 33 -24 38 -11 2 7
10 12 18 12 8 0 14 5 14 10 0 6 6 10 13 10 11 0 116 97 145 133 6 9 12 24 12
34 1 57 66 177 137 248 86 88 123 135 123 156 0 29 -26 23 -52 -13z"/>
<path d="M2735 3603 c3 -15 17 -40 31 -56 13 -16 24 -33 24 -39 0 -6 20 -36
45 -67 76 -96 166 -222 174 -244 5 -12 25 -46 45 -76 20 -29 36 -61 36 -71 0
-10 7 -23 15 -30 8 -7 15 -18 15 -24 0 -17 80 -106 95 -106 7 0 15 -7 19 -15
7 -18 56 -20 56 -2 -1 6 -15 23 -31 37 -75 61 -90 79 -128 155 -22 44 -51 95
-65 114 -14 19 -26 40 -26 45 0 11 -75 116 -158 220 -26 33 -52 72 -59 88 -32
75 -104 133 -88 71z"/>
<path d="M3445 3500 c-3 -5 17 -54 46 -107 52 -101 80 -134 280 -331 82 -80
109 -97 109 -67 0 13 -112 132 -170 181 -70 58 -138 146 -184 237 -46 90 -66
112 -81 87z"/>
<path d="M1607 3433 c-4 -3 -7 -18 -7 -33 0 -14 -9 -43 -20 -65 -11 -22 -20
-44 -20 -49 0 -10 -35 -91 -51 -116 -5 -8 -16 -31 -25 -50 -9 -19 -20 -42 -25
-50 -14 -25 -66 -133 -78 -163 -6 -15 -11 -42 -11 -60 0 -18 -7 -43 -16 -55
-20 -29 -15 -86 9 -90 13 -3 17 3 17 25 0 16 7 38 15 49 8 10 15 34 15 52 0
38 22 112 32 112 5 0 8 7 8 15 0 17 38 93 51 101 5 3 9 13 9 23 0 10 11 35 25
55 14 20 27 47 31 61 3 13 12 29 20 36 8 6 14 21 14 33 0 12 9 39 20 61 23 45
27 115 7 115 -8 0 -17 -3 -20 -7z"/>
<path d="M2431 3286 c-10 -12 -8 -17 9 -26 12 -6 28 -26 35 -43 8 -18 30 -47
50 -66 19 -19 35 -38 35 -44 0 -6 6 -18 14 -26 14 -16 65 -103 88 -151 7 -14
31 -52 54 -85 23 -33 46 -73 49 -88 4 -16 16 -34 26 -40 11 -7 19 -18 19 -26
0 -8 12 -29 26 -48 21 -27 29 -32 40 -22 12 9 11 16 -6 39 -11 16 -20 35 -20
42 0 8 -9 23 -20 33 -11 10 -22 27 -26 39 -4 11 -25 48 -48 81 -23 33 -47 71
-54 85 -29 59 -72 133 -86 149 -9 10 -16 22 -16 28 0 6 -18 31 -40 56 -22 25
-40 50 -40 55 0 13 -55 72 -68 72 -5 0 -15 -6 -21 -14z"/>
<path d="M2025 3271 c-3 -5 6 -29 19 -53 15 -27 30 -82 40 -143 27 -162 34
-199 41 -217 4 -10 10 -89 14 -175 5 -139 8 -158 24 -161 15 -3 17 7 17 115
-1 111 -8 181 -30 298 -5 28 -16 93 -24 145 -21 131 -75 232 -101 191z"/>
<path d="M2413 3058 c-4 -7 -9 -106 -11 -220 -4 -186 -3 -208 12 -214 9 -4 18
-5 20 -3 2 2 6 104 8 227 4 177 2 222 -8 222 -7 0 -16 -6 -21 -12z"/>
<path d="M3630 2949 c0 -20 61 -192 77 -216 20 -31 43 -30 43 2 0 14 -4 25 -8
25 -5 0 -19 33 -31 73 -13 39 -29 83 -36 97 -14 26 -45 40 -45 19z"/>
<path d="M3225 1930 c-3 -11 -9 -19 -13 -19 -20 3 -32 -3 -32 -16 0 -18 -58
-29 -107 -20 -21 3 -91 9 -155 12 -108 4 -118 3 -137 -16 -12 -12 -21 -31 -21
-44 0 -26 45 -97 62 -97 6 0 19 -6 27 -14 24 -21 141 -36 208 -26 123 17 191
69 212 162 9 42 9 62 1 78 -14 26 -37 26 -45 0z m-34 -143 c-10 -9 -11 -8 -5
6 3 10 9 15 12 12 3 -3 0 -11 -7 -18z m-311 -33 c0 -2 -13 2 -30 11 -16 9 -30
18 -30 21 0 2 14 -2 30 -11 17 -9 30 -18 30 -21z"/>
</g>
</svg>
